<?xml version="1.0" encoding="UTF-8"?>
<svg id="Layer_1" data-name="Layer 1" xmlns="http://www.w3.org/2000/svg" viewBox="0 0 448.96 399.53">
  <defs>
    <style>
      .cls-1 {
        fill: #96c82f;
      }

      .cls-1, .cls-2 {
        stroke-width: 0px;
      }

      .cls-2 {
        fill: #09712e;
      }
    </style>
  </defs>
  <path class="cls-2" d="m225.09,386.09c-2.55-.29-2.37-2.73-3-4.24-26.91-65.12-61.37-127.45-108.4-180.27-.82-.95-1.42-2.33-3.3-2.39-1.11,2.57.46,4.61,1.44,6.73,29.27,63.14,55.18,127.58,77.31,193.61-39.92-27.53-79.41-52.76-118.7-80.78C26.71,288.1.35,238.61.03,184.87-.03,123.24.02,61.63.02,0c2.32.02,3.61,1.48,5.02,2.51,30.26,21.66,61.8,41.28,92.6,62.09,63.59,40.93,114.45,70.11,125.43,151.97.28,2.08.25,4.33,1.8,6.07.07,54.48.14,108.97.21,163.45Z"/>
  <path class="cls-1" d="m225.09,386.09c-.07-54.48-.14-108.97-.21-163.45,3.32-3.17,2.1-7.59,2.67-11.33,7.38-48.2,32.79-84.74,72.46-111.77,35.9-24.46,72.27-48.22,108.4-72.34,11.63-7.76,23.15-15.68,34.76-23.47,1.61-1.08,3.04-2.56,5.2-2.94.97,1.93.47,3.93.47,5.84.03,59.31,0,118.62,0,177.93,0,38.88-12.47,73.26-36.97,103.4-14.31,17.6-32.18,30.9-50.88,43.36-27.25,18.16-54.27,36.67-81.35,55.08-6.14,4.17-12.13,8.56-18.63,12.56,11.31-33.82,23.68-67.12,36.54-100.25,12.78-32.93,27.98-64.82,42.52-97.73-4.14-.17-5.33,2.08-6.73,3.68-20.54,23.66-39.42,48.61-55.49,75.49-13.75,23.01-26.54,46.6-37.12,71.32-4.98,11.64-10.43,23.09-15.66,34.63Z"/>
</svg>